<svg id="Layer_1" data-name="Layer 1" xmlns="http://www.w3.org/2000/svg" viewBox="0 0 1000 1000">
  <defs>
    <style>
      .cls-1 {
        fill: #fff;
      }
    </style>
  </defs>
  <rect width="1000" height="1000"/>
  <path class="cls-1" d="M884.22,1000c-2.44-2-4.82-4.06-7.32-6-3-2.3-5.35-4.3-5.63-9-.68-11.69-2.53-23.32-3.92-35-.12-1-.34-1.88-.45-2.83-1.21-11-2.34-22-3.63-33-1.82-15.46-3.6-30.93-5.73-46.36-.71-5.16-2.71-10.13-3.67-15.27-2.35-12.75-4.49-25.53-6.64-38.32-2.74-16.32-4.83-32.78-8.26-49-4-18.91-8.11-37.92-14.09-56.27-6.47-19.84-15.12-39-22.9-58.39-5.68-14.17-11-28.52-17.38-42.37-8.77-19.05-17.59-38.16-27.87-56.4-9-16-20.07-30.86-30.26-46.19-3.58-5.38-7.15-10.78-11-16-12.32-16.55-24.5-33.21-37.27-49.41-7.44-9.46-14.48-19.12-21.24-29.07C652,404,645.23,398,639.21,391.51c-8.26-8.93-16.58-17.8-24.85-26.72-4-4.25-7.26-9.36-11.88-12.65-9-6.39-14.77-16.48-25.81-20.63C571.84,329.7,568,325,564,321.25c-5.72-5.33-10.87-11.29-16.77-16.4s-12.32-9.36-18.49-14c-9.59-7.26-19-14.71-28.77-21.77q-11.73-8.51-24-16.26c-17.53-11-35-22.31-52.93-32.59-15.44-8.83-31.35-17-47.5-24.4-11.54-5.31-23.88-8.89-35.79-13.4-16.6-6.29-33-13.1-49.75-19-14.79-5.19-29.87-9.57-44.91-14-13.16-3.9-26.34-7.83-39.69-11q-26.85-6.3-54-11.28c-8.47-1.56-17.22-1.56-25.81-2.56-3.51-.41-6.93-1.61-10.39-2.43-1.47-.35-3-1.08-4.42-.88-15,2.12-29.27-5.15-43.92-4-12.08.94-23.64-4.54-35.89-1.06-4.44,1.26-9.95-1.67-15-2.08-6.53-.53-9.08-6.1-13.3-9.56V81.48c.76-2.81,2.11-5.6,2.2-8.43.58-17.21.93-34.42,1.2-51.63,0-2.82-1.07-5.65-1-8.46C5.23,5.76,16.53-1.15,23.41.34c5.95,1.28,12.32.84,18.51.88,13.66.11,27.34-.11,41,.08,10.36.15,20.71,1,31.08,1q30.9.27,61.82,0c39.2-.29,78.39-.89,117.59-1.08,40.24-.2,80.48-.12,120.72,0,12.82,0,25.63.94,38.45.9,22.28-.09,44.56-.71,66.84-.91,18.58-.16,37.15.12,55.73-.06C598.92,1,622.67.34,646.43.14Q680-.15,713.56.18C724.79.29,736,1,747.23,1.65c6.19.37,14.83,12,14.53,18.8-.45,10-.86,19.93-1.13,29.9-.16,6.2-.52,12.45.1,18.59a122.2,122.2,0,0,0,3.61,18.19c2.44,9.47,5.13,18.88,8,28.24a128.28,128.28,0,0,0,5.89,16.53c7.81,17,16.58,33.57,29,47.65,4.9,5.57,12.05,9.19,18.29,13.54,7.26,5,14.46,10.22,22,14.78,5.76,3.46,12,6.16,18.12,9,14.87,6.9,30.89,10.21,46.37,15.11,14.52,4.6,29.28,4.64,43.73,7.75,5.67,1.22,11.89.54,17.78-.07,12.08-1.23,17.9,2.26,19.1,14.44,1.09,11,.25,22.27.44,33.41.08,4.75.81,9.49.94,14.24q.24,9.13,0,18.28c-.27,9.61-1.05,19.21-1.09,28.82-.15,30.62-.06,61.23-.06,91.84q0,108.55.06,217.12c0,20.05.87,40.1,1.06,60.16.19,21.12,0,42.26.05,63.39,0,21.52,0,43,.25,64.57.34,31,.86,61.9,1.36,92.85.13,7.83.4,15.65.71,23.46.3,7.32,1.08,14.63,1,21.93-.05,6.61-11,14.3-17.59,14.05-14.84-.55-29.71-.6-44.56-.49-11.75.09-23.5.7-35.24,1.17a18.66,18.66,0,0,0-4.17,1.11Z"/>
</svg>
