<svg id="Layer_1" data-name="Layer 1" xmlns="http://www.w3.org/2000/svg" viewBox="0 0 1000 1000">
  <defs>
    <style>
      .cls-1 {
        fill: #fff;
      }
    </style>
  </defs>
  <rect width="1000" height="1000"/>
  <path class="cls-1" d="M115.78,0c2.44,2,4.82,4.06,7.32,6,3,2.3,5.35,4.3,5.63,9,.68,11.69,2.53,23.32,3.92,35,.12,1,.34,1.88.45,2.83,1.21,11,2.34,22,3.63,33,1.82,15.46,3.6,30.93,5.73,46.36.71,5.16,2.71,10.13,3.67,15.27,2.35,12.75,4.49,25.53,6.64,38.32,2.74,16.32,4.83,32.78,8.26,49,4,18.91,8.11,37.92,14.09,56.27,6.47,19.84,15.12,39,22.9,58.39,5.68,14.17,11,28.52,17.38,42.37,8.77,19.05,17.59,38.16,27.87,56.4,9,16,20.07,30.86,30.26,46.19,3.58,5.38,7.15,10.78,11,16,12.32,16.55,24.5,33.21,37.27,49.41,7.44,9.46,14.48,19.12,21.24,29.07C348,596,354.77,602,360.79,608.49c8.26,8.93,16.58,17.8,24.85,26.72,3.95,4.25,7.26,9.36,11.88,12.65,9,6.39,14.77,16.48,25.81,20.63C428.16,670.3,432,675,436,678.75c5.72,5.33,10.87,11.29,16.77,16.4s12.32,9.36,18.49,14c9.59,7.26,19,14.71,28.77,21.77q11.73,8.5,24,16.26c17.53,11,35,22.31,52.93,32.59,15.44,8.83,31.35,17,47.5,24.4,11.54,5.31,23.88,8.89,35.79,13.4,16.6,6.29,33,13.1,49.75,19,14.79,5.19,29.87,9.57,44.91,14,13.16,3.9,26.34,7.83,39.69,11q26.85,6.3,54,11.28c8.47,1.56,17.22,1.56,25.81,2.56,3.51.41,6.93,1.61,10.39,2.43,1.47.35,3,1.08,4.42.88,15-2.12,29.27,5.15,43.92,4,12.08-.94,23.64,4.54,35.89,1.06,4.44-1.26,10,1.67,15,2.08,6.53.53,9.08,6.1,13.3,9.56v23.11c-.76,2.81-2.11,5.6-2.2,8.43-.58,17.21-.93,34.42-1.2,51.63,0,2.82,1.07,5.65,1,8.46-.17,7.2-11.47,14.11-18.35,12.62-6-1.28-12.32-.84-18.51-.88-13.66-.11-27.34.11-41-.08-10.36-.15-20.71-1-31.08-1q-30.9-.27-61.82,0c-39.2.29-78.39.89-117.59,1.08-40.24.2-80.48.12-120.72,0-12.82,0-25.63-.94-38.45-.9-22.28.09-44.56.71-66.84.91-18.58.16-37.15-.12-55.73.06-23.76.24-47.51.89-71.27,1.09q-33.56.28-67.13,0c-11.23-.11-22.46-.79-33.67-1.47-6.19-.37-14.83-12-14.53-18.8.45-10,.86-19.93,1.13-29.9.16-6.2.52-12.45-.1-18.59a122.2,122.2,0,0,0-3.61-18.19c-2.44-9.47-5.13-18.88-8-28.24a128.28,128.28,0,0,0-5.89-16.53c-7.81-17-16.58-33.57-29-47.65-4.9-5.57-12.05-9.19-18.29-13.54-7.26-5-14.46-10.22-22-14.78-5.76-3.46-12-6.16-18.12-9C119.52,776.24,103.5,772.93,88,768c-14.52-4.6-29.28-4.64-43.73-7.75-5.67-1.22-11.89-.54-17.78.07-12.08,1.23-17.9-2.26-19.1-14.44-1.09-11-.25-22.27-.44-33.41-.08-4.75-.81-9.49-.94-14.24Q5.79,689.13,6,680c.27-9.61,1-19.21,1.09-28.82.15-30.62.06-61.23.06-91.84q0-108.56-.06-217.12c0-20.05-.87-40.1-1.06-60.16-.19-21.12,0-42.26-.05-63.39,0-21.52,0-43.05-.25-64.57-.34-31-.86-61.9-1.36-92.85C4.28,53.4,4,45.58,3.7,37.77c-.3-7.32-1.08-14.63-1-21.93.05-6.61,11-14.3,17.59-14,14.84.55,29.71.6,44.56.49,11.75-.09,23.5-.7,35.24-1.17A18.66,18.66,0,0,0,104.23,0Z"/>
</svg>
